HIERARCHY
ROOT Hips
{
  OFFSET 36.5825 100.045 -334.741
  CHANNELS 6 Xposition Yposition Zposition Zrotation Xrotation Yrotation
  JOINT ToSpine
  {
    OFFSET -0.0105055 1.38907 -7.13956
    CHANNELS 3 Zrotation Xrotation Yrotation
    JOINT Spine
    {
      OFFSET 0.0105055 10 1
      CHANNELS 3 Zrotation Xrotation Yrotation
      JOINT Spine1
      {
        OFFSET 0 12 1.60637
        CHANNELS 3 Zrotation Xrotation Yrotation
        JOINT Neck
        {
          OFFSET 0 27 2.26658
          CHANNELS 3 Zrotation Xrotation Yrotation
          JOINT Head
          {
            OFFSET 0 9 2.12705
            CHANNELS 3 Zrotation Xrotation Yrotation
            End Site
            {
              OFFSET 0 11 2
            }
          }
        }
        JOINT LeftShoulder
        {
          OFFSET 8 19.6109 2.86452
          CHANNELS 3 Zrotation Xrotation Yrotation
          JOINT LeftArm
          {
            OFFSET 12 1 0.681055
            CHANNELS 3 Zrotation Xrotation Yrotation
            JOINT LeftForeArm
            {
              OFFSET 19 0 -1.52608
              CHANNELS 3 Zrotation Xrotation Yrotation
              JOINT LeftHand
              {
                OFFSET 23 0 0
                CHANNELS 3 Zrotation Xrotation Yrotation
                End Site
                {
                  OFFSET 10 0 0
                }
              }
            }
          }
        }
        JOINT RightShoulder
        {
          OFFSET -8 19.6109 2.86452
          CHANNELS 3 Zrotation Xrotation Yrotation
          JOINT RightArm
          {
            OFFSET -12 1 0.681055
            CHANNELS 3 Zrotation Xrotation Yrotation
            JOINT RightForeArm
            {
              OFFSET -19 0 -1.52608
              CHANNELS 3 Zrotation Xrotation Yrotation
              JOINT RightHand
              {
                OFFSET -23 0 0
                CHANNELS 3 Zrotation Xrotation Yrotation
                End Site
                {
                  OFFSET -10 0 0
                }
              }
            }
          }
        }
      }
    }
  }
  JOINT LeftUpLeg
  {
    OFFSET 9 -7.17245 0
    CHANNELS 3 Zrotation Xrotation Yrotation
    JOINT LeftLeg
    {
      OFFSET 0 -44.1113 0
      CHANNELS 3 Zrotation Xrotation Yrotation
      JOINT LeftFoot
      {
        OFFSET 0 -36.1829 0
        CHANNELS 3 Zrotation Xrotation Yrotation
        JOINT LeftToeBase
        {
          OFFSET 0 -4.84184 13
          CHANNELS 3 Zrotation Xrotation Yrotation
          End Site
          {
            OFFSET 0 1 6
          }
        }
      }
    }
  }
  JOINT RightUpLeg
  {
    OFFSET -9 -7.17245 0
    CHANNELS 3 Zrotation Xrotation Yrotation
    JOINT RightLeg
    {
      OFFSET 0 -44.0551 0
      CHANNELS 3 Zrotation Xrotation Yrotation
      JOINT RightFoot
      {
        OFFSET 0 -36.1469 0
        CHANNELS 3 Zrotation Xrotation Yrotation
        JOINT RightToeBase
        {
          OFFSET 0 -4.92256 13
          CHANNELS 3 Zrotation Xrotation Yrotation
          End Site
          {
            OFFSET 0 1 6
          }
        }
      }
    }
  }
}
MOTION
Frames:	17
Frame Time:	0.0333333
36.5825 100.045 -334.741 -0.800907 -2.45306 0.961875 0 0 0 7.8197 4.18564 2.26144 -8.18514 -0.918496 3.95634 6.54716 4.89837 -3.2706 -2.4212 4.94702 -0.388928 -30.1266 3.72694 -6.7723 -41.3392 27.8206 -11.9852 -5.72608 -12.7185 -4.72117 -11.7261 0.418928 -4.07789 25.3719 3.62068 7.93499 54.9471 16.016 2.76711 2.00995 3.56721 11.8466 1.39473 0.0296179 2.73749 3.79867 7.06898 8.24111 -2.52063 2.8842 -0.677646 12.2306 7.09079 -0.76066 2.05927 -28.4662 3.4574 3.14308 3.48765 -6.46407 1.40431 8.07013 -2.11942 -16.5507 -5.059 -0.736274 3.97055 -14.8458 -3.2692 
36.0381 99.9634 -334.418 -0.600428 -2.29082 1.00964 0 0 0 7.16256 3.74437 2.23889 -7.5605 -0.734956 3.83033 6.45544 5.80999 -3.10869 -2.8661 4.63726 -0.1075 -30.3696 3.68721 -6.59661 -41.8065 26.5561 -10.9134 -5.36456 -12.4746 -5.39542 -12.0713 0.423062 -3.99961 24.887 3.77737 8.60384 55.0444 16.5761 2.96192 2.38345 3.09412 11.515 1.38194 0.0296196 2.66536 4.00866 6.56083 8.17142 -2.44911 4.06921 -0.943345 12.0154 6.31583 -0.665343 2.06652 -28.4868 3.7518 3.11894 3.30867 -6.7268 1.6133 8.66995 -1.94099 -16.3274 -5.68857 -0.816714 3.91406 -14.6115 -3.1176 
35.4419 99.8914 -334.092 -0.687332 -2.39602 1.04598 0 0 0 6.84717 3.62726 2.27935 -7.01826 -0.377634 3.8051 6.43662 6.23619 -2.84756 -3.10249 4.35382 0.218715 -30.596 3.68476 -6.52859 -42.0395 25.9866 -10.3329 -5.50238 -15.4011 -6.13592 -11.8885 0.455822 -4.37571 25.4058 4.16821 9.63854 54.2654 16.756 2.71042 2.32555 3.00616 11.7908 1.32751 0.0296244 2.46024 4.76291 5.9797 8.59859 -2.73146 5.90261 -2.73657 12.6896 5.34091 -0.594294 2.12006 -28.5295 6.56476 3.57941 3.4782 -6.54272 1.31705 9.19267 -2.23325 -13.5479 -7.48293 -0.890079 3.29124 -12.1631 -1.79488 
34.923 99.702 -333.857 -0.549703 -2.29516 1.62137 0 0 0 6.43263 3.26123 1.84679 -6.36727 0.221527 3.30846 5.4176 6.31936 -2.21162 -2.70184 4.28004 0.391988 -30.8084 3.4987 -5.96995 -42.0032 24.1145 -9.86123 -4.91894 -13.5789 -6.32569 -11.1606 0.335667 -3.43454 25.4249 4.65151 11.1398 53.7828 16.5609 2.79143 2.5797 1.76851 11.6317 1.35066 0.0296232 2.51275 5.21025 3.90506 8.31987 -2.69744 9.90561 -5.0508 14.0695 3.50941 -0.433196 2.23848 -28.6664 11.8073 3.53859 3.16422 -7.05679 1.69236 10.163 -2.13497 -13.0579 -8.32128 -0.954006 3.38254 -12.482 -2.49099 
34.4475 99.3318 -333.681 -1.016 -2.44578 2.47875 0 0 0 6.79443 3.44967 1.36384 -5.7614 0.520989 2.81119 4.7579 6.65251 -1.68264 -2.48517 3.15261 0.619146 -30.8331 3.36489 -5.60294 -42.2476 22.8471 -9.43492 -4.67192 -13.9823 -6.92778 -11.0383 0.308122 -3.18799 24.912 4.93941 12.2789 54.045 15.9077 2.71149 2.14336 2.25492 12.0749 1.4656 0.0263057 2.05644 6.37041 0.948096 9.31457 -2.22411 15.912 -9.35775 16.3417 0.878838 -0.126189 2.36489 -28.637 18.8063 4.28924 2.83825 -7.23754 2.00191 11.5316 -3.21654 -13.594 -9.13818 -1.09146 3.35896 -12.4392 -1.56378 
34.0242 99.1105 -333.531 -1.313 -2.32457 3.03942 0 0 0 7.91913 4.13535 0.987827 -6.6285 -0.00744027 2.62567 4.58501 6.4492 -1.16198 -2.3511 3.04741 1.03241 -30.4452 3.22378 -5.31381 -42.5472 21.8516 -8.53023 -4.49305 -14.4659 -8.29719 -10.9226 0.267967 -2.80222 25.0954 5.17812 12.9408 53.5601 16.4307 2.87265 2.162 2.48985 12.1712 2.8055 0.110414 4.50667 7.26286 -2.74452 11.9142 -0.676322 22.3429 -16.1544 16.6705 0.055614 -0.00814814 2.93812 -29.8712 26.0932 4.76596 2.49491 -7.37848 2.22901 12.4034 -3.54165 -12.4663 -10.6166 -1.16284 2.91654 -10.7104 -1.70138 
33.6533 99.0146 -333.26 -1.5065 -2.33048 3.79041 0 0 0 8.3031 4.32211 0.8404 -6.46232 0.178516 2.4487 4.25209 7.02033 -0.959387 -2.61562 1.68892 1.17409 -31.1075 3.27013 -5.28279 -42.1866 20.8771 -7.80505 -4.72352 -16.1054 -9.75004 -10.388 0.18919 -2.08102 25.8179 5.90726 14.8225 52.1124 16.1942 2.19113 2.51282 0.914659 12.0089 2.58224 0.0948679 4.20733 7.76165 -6.40149 10.7429 -8.28341e-007 28.116 -18.9139 15.1192 -0.143699 0.0190704 3.91368 -31.6606 32.3992 5.12309 2.96316 -7.63611 2.56122 11.9482 -3.95706 -11.3685 -11.2486 -1.1232 2.67225 -9.6825 -2.16488 
33.3233 99.1942 -332.809 -0.997124 -2.55372 4.54334 0 0 0 8.72377 5.28855 0.938745 -7.5753 -0.0166462 2.74847 4.70833 6.21797 -1.45105 -2.90919 2.08283 0.896188 -30.9406 3.20674 -5.15147 -42.3178 19.9644 -7.54549 -4.19434 -14.6433 -9.81021 -10.5729 0.257177 -2.77889 25.6687 5.71307 14.3074 51.9336 16.4226 2.92411 2.5984 1.88006 11.2754 2.45007 0.077171 3.6076 7.30951 -9.7574 8.6789 -2.70325e-007 33.0295 -18.9265 8.85572 -0.690626 0.0534793 5.71155 -35.0114 35.9034 5.00579 4.35571 -7.81741 2.50869 10.2269 -4.55909 -10.3316 -11.3675 -1.03104 2.26766 -8.17395 -1.6604 
33.0851 99.1688 -332.253 -0.599578 -2.29743 4.71863 0 0 0 9.01807 5.54486 1.33808 -8.03401 -0.010627 3.24604 4.15023 6.08368 -1.37279 -2.33592 1.90306 0.63402 -31.1058 3.12665 -4.89887 -42.0529 19.9561 -7.64162 -4.41294 -15.5393 -9.54898 -10.4593 0.253891 -2.77335 25.8198 5.8272 14.5769 51.2584 16.4303 2.85458 2.58608 2.5116 10.8522 2.6208 0.082809 3.6189 6.72834 -12.4825 7.99773 2.81318e-007 35.5907 -19.9905 7.4934 -1.36321 0.0892747 4.92382 -33.4775 35.2939 4.85387 4.46329 -7.82874 2.27367 10.3594 -4.6838 -9.69946 -12.021 -1.02367 2.24112 -8.2306 -0.897559 
32.892 99.1285 -331.685 -0.0975532 -1.9084 4.96017 0 0 0 9.25496 6.17718 1.77738 -8.78736 -0.664215 3.7955 4.54711 5.93276 -1.6657 -2.22046 1.91829 0.448322 -30.6715 3.12203 -4.98456 -42.7247 19.6112 -7.04407 -4.30669 -15.0299 -9.57728 -10.4358 0.245994 -2.69319 26.107 5.96254 14.8346 50.9536 16.1716 2.62253 3.05809 1.00792 10.1282 2.81583 0.100449 4.08525 5.85305 -14.9009 8.20385 2.96192e-007 36.0329 -19.8812 6.88337 -2.40385 0.144591 3.34199 -30.4707 30.853 4.53567 4.49397 -7.88953 2.13012 10.3599 -4.86822 -9.65773 -12.4333 -1.05447 2.32162 -8.61399 -0.503716 
32.7225 99.2094 -330.897 0.653471 -1.30732 4.91933 0 0 0 9.32825 6.15885 2.21881 -9.69673 -0.672569 4.34178 4.4872 5.43959 -1.76192 -2.23643 2.01067 0.320939 -30.8415 3.09641 -4.87679 -42.7064 19.5929 -5.86892 -4.27763 -14.9313 -10.4324 -10.5285 0.23725 -2.57451 25.3776 5.74841 14.5721 51.5109 16.6477 3.30862 3.29032 0.899217 9.84305 2.84284 0.0939873 3.78636 4.3757 -16.943 8.56547 9.15971e-007 34.0686 -16.9917 4.61538 -3.97529 0.160263 1.48213 -25.3057 18.6174 4.0109 4.62637 -7.86735 1.86315 9.92287 -4.85547 -10.0725 -12.4743 -1.10365 2.36529 -8.70722 -0.887318 
32.656 99.3581 -330.041 1.59158 -1.02799 5.28149 0 0 0 9.57857 6.56546 2.14167 -10.9424 -0.693489 4.46212 3.49122 5.23879 -1.23421 -1.13484 1.36469 0.228414 -31.0987 3.04895 -4.69225 -42.5203 19.1311 -5.01361 -4.07927 -14.5605 -10.1203 -10.4593 0.229588 -2.50796 25.385 5.92467 15.1137 51.412 16.9089 3.60337 3.27555 0.569792 10.0048 2.28011 0.0646098 3.2458 2.29458 -18.329 8.1306 -1.93999e-007 30.636 -14.295 2.78701 -4.5653 0.111115 0.23917 -17.2253 10.1525 3.36766 5.57443 -7.96468 1.42999 8.6544 -4.9987 -9.46781 -12.4499 -1.03503 2.17742 -7.99737 -0.848209 
32.6394 99.4701 -329.02 2.3396 -0.556748 5.68408 0 0 0 9.80074 6.56184 2.36704 -11.6897 -0.518159 4.80396 2.70886 4.66802 -1.28698 -1.46486 1.24824 -0.025403 -31.5539 3.15219 -4.86724 -42.0899 19.6616 -4.04095 -4.49597 -16.2425 -10.27 -10.3854 0.212776 -2.341 25.0098 5.78432 14.8853 51.587 17.237 3.7633 3.10713 0.48304 10.9258 2.47097 0.0742646 3.44246 0.244 -19.3845 7.46481 -0.218841 25.8948 -12.6814 2.37484 -4.19669 0.0870254 0.0716335 -8.61048 2.97482 2.95068 6.45886 -7.87229 0.822108 7.48127 -5.38014 -8.02436 -13.3561 -0.941047 1.95307 -7.06211 -1.15656 
32.7562 99.3838 -327.833 3.08986 -0.355261 5.6781 0 0 0 10.0027 6.71415 2.34462 -12.4296 -0.361756 4.9157 2.00729 4.33692 -0.836321 -0.937076 0.83771 0.0544843 -31.3365 3.0219 -4.56854 -43.0781 17.5691 -2.51571 -4.03083 -15.0183 -10.5732 -10.3515 0.206975 -2.28469 25.1923 6.02422 15.5308 51.2833 17.1723 4.00662 2.79872 0.851317 11.5101 2.76639 0.0898234 3.71871 -1.73315 -19.7868 4.54898 -1.61603 20.1398 -9.33157 2.73241 -3.00176 0.0716062 0.508638 -4.05246 -1.18855 2.19614 7.30091 -8.36862 0.630934 7.25969 -4.85508 -7.4846 -14.1223 -0.928402 1.9635 -6.99941 -1.56474 
32.9552 99.1432 -326.546 2.99974 -0.20114 5.4617 0 0 0 12.0819 7.28139 2.5501 -14.1114 -0.936256 5.44153 1.3062 4.81065 -0.908094 -1.23621 0.0443101 -0.185472 -31.7331 3.0713 -4.61463 -43.1297 17.9019 -0.763803 -4.36996 -16.1782 -11.2918 -10.5947 0.199738 -2.15394 24.5552 5.80442 15.2044 51.6666 17.6885 4.40665 2.84764 0.59944 11.8325 2.98736 0.101216 3.88014 -2.69806 -20.3005 1.68409 -2.4386 14.991 -7.27102 2.32055 -2.45998 0.0498306 0.363899 -2.95249 -0.799667 2.37747 8.30115 -8.28852 0.495334 6.55434 -5.21548 -8.71695 -13.9059 -1.06507 2.34971 -8.66128 -0.815919 
32.9834 98.7827 -324.96 3.02809 -0.0115128 4.63484 0 0 0 12.9228 7.00317 3.10957 -14.6748 -0.599196 6.10379 0.528485 4.65369 -0.729663 -0.653151 0.104479 -0.400659 -32.3623 3.04251 -4.40753 -42.9438 17.6591 1.23314 -4.11004 -15.2816 -12.7822 -11.5669 0.195351 -1.92855 24.595 5.91342 15.5268 51.0344 18.3729 4.94696 2.98625 0.347528 11.9144 3.16568 0.114956 4.15832 -3.38914 -20.4968 0.610105 -2.59956 10.0762 -6.84989 2.67892 -1.45277 0.0339709 0.479126 -3.56327 -1.17805 2.22827 8.80561 -8.55176 0.29047 7.55863 -4.22935 -7.70054 -16.0378 -1.08643 2.02317 -7.35602 -1.06382 
33.2422 98.2869 -323.145 3.01178 -0.194702 4.47763 0 0 0 14.107 6.76639 3.28421 -15.1854 -0.154115 6.39599 -0.27055 4.81886 -0.484071 -0.528168 -0.0156126 -0.454232 -33.2161 3.00995 -4.15266 -42.6611 17.7215 1.48312 -4.41748 -16.6665 -11.362 -10.9137 0.165436 -1.73166 24.1433 5.7875 15.3877 51.0449 18.5641 5.76573 3.08193 0.358156 11.6397 2.65711 0.0754604 3.25288 -4.39854 -20.6358 -0.451392 -2.48702 7.03088 -6.77912 4.54939 -0.78911 0.0313454 0.747308 -3.68249 -2.43403 2.26932 9.89181 -8.70556 -0.137323 8.49831 -3.96596 -6.81539 -17.8366 -1.07072 2.18225 -8.21922 0.137629 
